# xmcd
#
# Track frame offsets: 
#        150
#        25496
#        44310
#        63891
#        81382
#        98817
#        121286
#        141212
#        161909
#        184119
#
# Disc length: 2645 seconds
#
# Revision: 2
# Processed by: cddbd v1.5.1PL0 Copyright (c) Steve Scherf et al.
# Submitted via: ExactAudioCopy v0.95a5
#
DISCID=880a530a
DTITLE=迪克牛仔 - 本色
DYEAR=2004
DGENRE=
TTITLE0=死心塌地
TTITLE1=你是你我是我
TTITLE2=到底我要等到什麼時候
TTITLE3=莎郎嘿 Sa Lang Hae
TTITLE4=機場
TTITLE5=不忍
TTITLE6=愛盲
TTITLE7=心痛的感覺
TTITLE8=英雄
TTITLE9=男兒當自強
EXTD=
EXTT0=
EXTT1=
EXTT2=
EXTT3=
EXTT4=
EXTT5=
EXTT6=
EXTT7=
EXTT8=
EXTT9=
PLAYORDER=
